<svg xmlns="http://www.w3.org/2000/svg" viewBox="0 0 2382.9 2404.8"><title>logo</title><path d="M307.9,834l1037.8,598.7a418.5,418.5,0,0,0,436.2-11.1L2690.8,834V2145.2a214.4,214.4,0,0,1-117.9,191.5l-817.7,412.5a418.6,418.6,0,0,1-360.3,7.9L434.3,2324.5a214.5,214.5,0,0,1-126.4-195.6Z" transform="translate(-307.9 -389.3)" style="fill:#171717"/><path d="M952.9,695.8c121.7-79,287-182.2,410.6-258.8,105.7-65.5,238.1-63.4,342,5.1l389.1,256.3c74,48.8,69.1,161.6-8.8,203.5l-364.2,196a411.8,411.8,0,0,1-391.2,0L961.5,899.4C883.3,857.3,878.3,744.2,952.9,695.8Z" transform="translate(-307.9 -389.3)" style="fill:#171717"/></svg>