<svg xmlns="http://www.w3.org/2000/svg" viewBox="0 0 2109 333.4"><title>sushilight</title><path d="M2201.6,1224.7l143.9,83a58,58,0,0,0,60.5-1.5l126-81.5v181.8a29.7,29.7,0,0,1-16.4,26.5l-113.4,57.2a57.8,57.8,0,0,1-49.9,1.1l-133.1-60a29.7,29.7,0,0,1-17.6-27.1Z" transform="translate(-422.9 -1163.1)" style="fill:#fff"/><path d="M2291,1205.6c16.9-11,39.8-25.3,57-35.9a43.8,43.8,0,0,1,47.4.7l53.9,35.5c10.3,6.8,9.6,22.4-1.2,28.2l-50.5,27.2a57.2,57.2,0,0,1-54.2,0l-51.2-27.5C2281.4,1227.9,2280.7,1212.3,2291,1205.6Z" transform="translate(-422.9 -1163.1)" style="fill:#fff"/><path d="M430.9,1394.1a109.5,109.5,0,0,0,56.2,16.1c32.1,0,50.9-17.2,50.9-41.9,0-22.9-13-36-45.8-48.8-39.7-14.2-64.2-34.9-64.2-69.5,0-38.2,31.4-66.6,78.6-66.6,24.9,0,42.9,5.8,53.7,12l-8.6,25.8a97.4,97.4,0,0,0-46.2-11.6c-33.1,0-45.8,20-45.8,36.7,0,23,14.8,34.3,48.3,47.4,41.2,16,62.1,36,62.1,72,0,37.9-27.8,70.7-85.1,70.7-23.5,0-49.1-7-62.1-15.7Z" transform="translate(-422.9 -1163.1)" style="fill:#fff"/><path d="M644.4,1187.4v145.2c0,55,24.1,78.3,56.6,78.3,36,0,59.1-24,59.1-78.3V1187.4h31.7v143c0,75.4-39.3,106.3-91.9,106.3-49.8,0-87.3-28.7-87.3-104.8V1187.4Z" transform="translate(-422.9 -1163.1)" style="fill:#fff"/><path d="M842,1394.1a109.5,109.5,0,0,0,56.2,16.1c32.1,0,50.8-17.2,50.8-41.9,0-22.9-12.9-36-45.7-48.8-39.7-14.2-64.2-34.9-64.2-69.5,0-38.2,31.3-66.6,78.6-66.6,24.9,0,42.9,5.8,53.7,12l-8.6,25.8a97.4,97.4,0,0,0-46.2-11.6c-33.2,0-45.8,20-45.8,36.7,0,23,14.8,34.3,48.3,47.4,41.1,16,62,36,62,72,0,37.9-27.7,70.7-85.1,70.7-23.4,0-49-7-62-15.7Z" transform="translate(-422.9 -1163.1)" style="fill:#fff"/><path d="M1055.4,1187.4V1290H1173V1187.4h31.7v245.3H1173v-115H1055.4v115H1024V1187.4Z" transform="translate(-422.9 -1163.1)" style="fill:#fff"/><path d="M1290.5,1187.4v245.3h-31.3V1187.4Z" transform="translate(-422.9 -1163.1)" style="fill:#fff"/><path d="M1515.2,1424.7c-11.6,5.8-34.6,11.7-64.2,11.7-68.5,0-120.1-43.7-120.1-124.2,0-76.8,51.6-128.8,126.9-128.8,30.3,0,49.4,6.5,57.7,10.9l-7.5,25.8c-11.9-5.8-28.9-10.2-49.1-10.2-57,0-94.8,36.8-94.8,101.2,0,60.1,34.2,98.7,93.4,98.7,19.1,0,38.6-4,51.2-10.2Z" transform="translate(-422.9 -1163.1)" style="fill:#fff"/><path d="M1554.5,1187.4h31.3v218.7h103.9v26.6H1554.5Z" transform="translate(-422.9 -1163.1)" style="fill:#fff"/><path d="M1743.1,1187.4v145.2c0,55,24.1,78.3,56.6,78.3,36,0,59.1-24,59.1-78.3V1187.4h31.7v143c0,75.4-39.3,106.3-91.9,106.3-49.8,0-87.3-28.7-87.3-104.8V1187.4Z" transform="translate(-422.9 -1163.1)" style="fill:#fff"/><path d="M1945,1190.6c13.7-2.9,35.3-5.1,57.3-5.1,31.4,0,51.6,5.5,66.7,17.9,12.7,9.4,20.2,24,20.2,43.3,0,23.7-15.5,44.4-41.1,53.9v.7c23.1,5.8,50.1,25.1,50.1,61.5,0,21.1-8.3,37.2-20.5,49.2-17,15.6-44.4,22.9-84,22.9-21.7,0-38.3-1.4-48.7-2.9Zm31.4,100.5h28.4c33.2,0,52.7-17.5,52.7-41.1,0-28.8-21.6-40.1-53.4-40.1-14.4,0-22.7,1.1-27.7,2.2Zm0,117.6c6.1,1.1,15.1,1.5,26.3,1.5,32.4,0,62.4-12.1,62.4-47.7,0-33.5-28.5-47.4-62.8-47.4h-25.9Z" transform="translate(-422.9 -1163.1)" style="fill:#fff"/></svg>